<?xml version="1.0" encoding="utf-8"?>
<!-- Generator: Adobe Illustrator 17.1.0, SVG Export Plug-In . SVG Version: 6.00 Build 0)  -->
<!DOCTYPE svg PUBLIC "-//W3C//DTD SVG 1.1//EN" "http://www.w3.org/Graphics/SVG/1.1/DTD/svg11.dtd">
<svg version="1.1" id="Layer_1" xmlns="http://www.w3.org/2000/svg" xmlns:xlink="http://www.w3.org/1999/xlink" x="0px" y="0px"
	 viewBox="11 146 578.8 463" enable-background="new 11 146 578.8 463" xml:space="preserve">
<g>
	<path d="M574.1,418.9c4.6,10.6,1.9,21.8,0.6,33.1c-1.3,11-3.1,22.1-7.3,32.4c-11.3,27.5-30,25.4-54.5,15.7
		c-11-4.3-25.8-11.7-37.7-11.8c-12.2-0.1-22.6,7-35.3,3.2c-4.8-1.4-9.1-4-13.7-5.9c-14.7-5.9-37.4-3.1-53.3-4
		c-12.5-0.7-25.1-1-37.6-2.3c-19-1.8-34.9,3.2-53.1,7.6c-22.2,5.4-43-1.3-65.2-3.1c-25.4-2-51,0.1-75.8,6.2
		c-10.4,2.6-20.7,5.7-31.2,8c-18.2,4-36.8-4.4-52.5-12.7c-7.2-3.8-18.8-8.1-24.5-14c-5.4-5.7-5.6-14.9-6-22.5
		c-0.6-10-3.1-21.4-2-31.2c1.2-10.7,7.4-21.7,9.9-32.3c2.4-10.5-3.5-21.7,0.6-31.9c2.4-6.1,8.7-11.2,12.5-16.5
		c8-11.1,14.6-28.1,30.2-27.9c7.7,0.1,14.5-2.8,20.4-7.8c0.7-0.6,1.7-0.9,2.5-1.3c-1.5-1.5-2.3-2-3-2.5c-2.1-1.5-3.7-3.5-3.7-6.1
		c-0.1-3.4-0.1-6.9,0.2-10.2c1.5-14.3,7.8-26.4,18.2-36c34.2-32.1,66.6-69.6,111.1-87.6c11.6-4.7,24.3-7.5,36.8-6.6
		c11.9,0.8,20.7,7.8,29.8,15.1c16.3,13.1,32.6,26.3,49.1,39.2c8.1,6.4,13.8,14.3,17.1,24c4.3,12.5,10.4,24.3,18.4,34.9
		c10.3,13.6,22.6,24.9,37.9,32.6c12,5.9,23.1,2.2,35.9,3.2c17.4,1.4,31.8,12.4,45.8,21.8c14.4,9.6,27.5,20.7,35.8,36.2
		c6.4,11.9,13.2,23.9,21.7,34.5c6.3,7.8,15.2,14.5,20.3,23.5C573.1,416.9,573.7,418,574.1,418.9z"/>
	<path fill="#FFFFFF" d="M153.4,309.1c6.7,4.2,13.8,6.9,22.2,10.2c14.3,5.7,28.6,11.4,43.1,16.6c30.8,11.1,62.7,19,94.4,27.3
		c34.4,9,68.9,17.8,102.4,29.7c10.8,3.9,21.5,8.2,32.3,12.4h0.1c2.8,1.1,2.4,5.2-0.4,6c-7.7,2.1-15.2,1.3-22.9-0.5
		c-8.4-2-17.1-2.7-25.7-4.1c-2.7-0.4-5.3-1.3-7.8-2.3c-15.9-5.4-31.8-11-47.7-16.3c-9.3-3.1-19.1-3.5-28.8-4.3
		c-16.5-1.3-32.3-5.3-48-10.2c-34.8-10.9-69.6-21.9-104.5-32.7c-10.4-3.2-21-5.4-32-4.5c-2.8,0.2-12.6,5.4-18.2,15.4
		c-5.5,9.9-19.3,13.3-29.7,19.3c-13.1,7.5-32.4,8-36,10.7c-2.9,2.3-1.2,8.3-2.1,11.3c-0.9,2.7-2.9,4.5-3.7,7.3
		c-1.8,6.2,1.5,13.8,6.7,17.3c7.7,5.1,17.7,4.5,26.9,3.7c31.6-2.8,63.3-5.4,94.9-8.2c40.6-3.5,81.3-7,122.1-5.6
		c53.7,2,106.6,12.5,160,18.4c20.1,2.2,40.4,3.8,60.6,5.3c15.9,1.2,33.2,2.1,45.2-10.7c1.7-1.8,4.3-2.1,6.2-0.8
		c7.3,5.1,8,16.2,6.1,25.8c-3.9,20.1-0.2,34.1-14.9,48.3c-6.6,6.4-16.6,8.7-21.2,0.4c-3.3-6-1.3-13.5,4.3-17.4
		c6.5-4.5,13.4-8.6,16.3-15.7c5.4-13.3-5.3-21.7-18.7-21.3c-21.7,0.7-22.2,20.9-29.3,35.3c-2.7,5.4-8.3,9.9-14.3,9.3
		c-3.4-0.3-6.4-2.1-9.5-3.5c-9.1-3.9-18.1,2.7-27,4.5c-7,1.4-20.7-1.7-20.5-10.8c0.2-9.4,11.8-15.1,13-24.4
		c0.8-6.2-3.4-12.2-8.8-15.3c-5.4-3.2-11.8-4.1-17.9-5c-17.3-2.4-34.6-4.9-51.9-7.3c-5.6-0.8-11.6-1.5-16.6,1.2
		c-7.8,4.2-9.5,14.6-9.1,23.5c0.1,2,0.2,3.9,0.4,5.9c0.9,13.4-11.1,24.2-24.4,21.7c-0.1,0-0.1,0-0.2-0.1
		c-7.2-1.5-14.1-6.5-15.2-13.7c-2.1-12.2,12.6-23.1,9.6-35.2c-2.9-11.7-16.1-12.4-30.7-12.4c-30,0-59.9,4.6-89.8,6.9
		c-15,1.2-29.9,2.3-44.9,3.4c-7.3,0.6-14.6,1.1-22,1.7c-5.6,0.4-12.9-0.2-18.1,1.9c-10.2,4.2-3.7,17.4-1.5,25
		c3,9.9,6.7,19.5,11.2,28.7c2.8,5.8-0.7,12.7-7.1,13.5c-2.4,0.3-4.7,0-6.9-1.2c-3.4-2-5.1-5.8-6.7-9.4l-20.9-47.6
		c-2.1-4.8-7.2-7.5-12.4-6.5c-4.7,0.9-9.4,1.3-14,0.7c-7.6-1-15.2-5.3-17.9-12.5c-3.8-10.2,3.2-20.6,6.8-29.8
		c1.9-4.8,2.2-8.6,1.2-13.8c-1.3-7.5-3.2-13.1-1.2-18.8c2.8-8,11.3-3.9,17.4-4.5c6.8-0.6,13.3-2.9,19.5-5.4
		c13.2-5.3,25.8-12.2,37.5-20.4c11.2-7.9,6.9-21.9-4.6-27.2c-2.6-1.2-5.4-1.8-7.8-3.5c-8-5.6-0.9-23.6,2.4-30.2
		c2.3-4.7,6.7-8.9,10-12.8c4-4.8,9.1-12.5,15.6-13.6c6.4-1,8.1,5,5.8,9.9c-1.2,2.6-3.1,4.8-4.7,7.3c-10.4,16.3,0.6,32.8,12.3,44.5
		C145.7,303.8,149.5,306.6,153.4,309.1z"/>
	<path d="M331,380.2c24.6,5.4,49,11.7,72.8,21.7c1.3,0.6,2.8,1.2,4.2,0.9c1.4-0.2,2.7-1.8,2.2-3.1c-0.4-1-1.5-1.5-2.5-1.8
		c-28.6-10-57.7-18.4-87.2-25.3c-20.4-4.8-40.7-6.7-59.7-16c-7-3.4-14.9-4.9-22.4-6.7c-28.5-6.7-55.8-17.7-83-28.6
		c-8.2-3.3-16.7-8-22.9-14.7c-7.5-8.3-7.7-18.1-12.7-27.4c-1.6-3-4.8-5.4-8.1-5c-3.1,0.4-5.4,3.1-7,5.8c-1.5,2.6-2.7,6.1-1.1,8.7
		c1.5,2.4,4.6,3,7.2,4c21.5,7.8,12.9,29.1,0.4,40.1c-11.4,10-27.7,19.5-43,21.5c-5.8,0.8-11.9,1-17,3.9c-3.7,2.1-10.7,9-5.2,12.9
		c5.6,4,13.5-2.2,18.4-4.8c7.3-3.8,15.4-5.6,22.8-9.3c9.1-4.5,17.6-10.2,25.5-16.6c8-6.5,18.3-9.9,28.6-9.1
		c9.8,0.7,19.3,3.5,28.8,6.3c29.1,8.5,58.1,17,87.1,25.5C281.6,370,306.4,374.8,331,380.2z"/>
	<path fill="#FFFFFF" d="M169.5,267.4"/>
	<g>
		<path fill="#FFFFFF" d="M149.5,253.6c0.1-0.7,9.3-25.1,27.6-41.6c15.4-13.8,35.2-24.7,53.5-34.8c10.7-5.9,22.3-5.9,28.3-4.3
			c14.2,3.7,40.3,26.7,36.4,43.9c-4.3,19.2-27.1,4.3-56.1,38.7c-17,20.1-9.2,42.4-35.9,53.5c-14,5.8-30.2-11.1-38.2-20.3
			C156.5,279,148.2,267.2,149.5,253.6z"/>
		<path d="M178,242.2c-0.5,0.9-0.9,1.9-1.3,2.9c-5.4,14.4,2.1,43.8,22.2,42.2c18.8-1.5,10.5-42.7,33.5-52.4
			c26.6-11.1,32.2-20.3,29.3-26.9c-12.7-29.2-58.9,11.1-64.3,15.1C189.9,228.9,182.3,233.7,178,242.2z"/>
	</g>
	<path d="M39.7,373.3"/>
	<path fill="#FFFFFF" d="M461.9,307.9c-0.1-0.1-0.2-0.2-0.4-0.2c-18.1-1.8-31.9,0.8-47.3-2.8c-15.4-3.5-28.9-18.2-38.7-29.7
		c-8.4-9.9-14.8-21.1-20-32.9c-5.2-11.8-8.6-22.8-19.2-31c-10.1-7.8-20-16-30-24c-9.7-7.6-19.4-15.1-29.1-22.6
		c-0.7-0.6-1.5-1-2.5-1.6c-0.6-0.3-1.2-0.3-1.7,0.1c-2.1,2,5.1,9,8.4,11.6c11.3,8.9,22.9,17.6,33,27.9c12.2,12.2,20.9,26.1,21.5,44
		c0.4,10.4,6.2,17.7,14.6,23.3c11.4,7.5,22.9,14.2,33.2,23.4c4.7,4.2,9.5,8.4,14.6,12.3c4.7,3.7,9.2,7.8,15.1,9.5
		c14,4,31.4,4,45.4,2c1.3-0.2,2.6-0.6,3.6-1.4C465.8,313.2,464.4,309.6,461.9,307.9z"/>
</g>
<rect x="22.8" y="527.5" fill="none" width="567" height="112.7"/>
<g enable-background="new    ">
	<path d="M66.8,533.6c2.4-5.7,4.9-6.1,8.8-6.1h5.9c6.5,0,6.5,4.4,6.5,8.7v60c0,4.4,0,8.7-6.5,8.7h-5.5c-6.5,0-6.5-4.4-6.5-8.7v-30
		c0-0.7-0.2-1.1-0.5-1.1s-0.7,0.4-1,1.1c-7.7,15.4-8,19.1-11.6,19.1c-3.6,0-3.9-3.7-11.6-19.1c-0.3-0.7-0.8-1.1-1-1.1
		c-0.3,0-0.5,0.4-0.5,1.1v30c0,4.4,0,8.7-6.5,8.7h-5.5c-6.5,0-6.5-4.4-6.5-8.7v-60c0-4.4,0-8.7,6.5-8.7h5.8c4,0,6.5,0.5,8.9,6.1
		l8.2,19.3c0.9,2,1.4,3.1,2.2,3.1s1.3-1.1,2.2-3.1L66.8,533.6z"/>
	<path d="M110.5,585c0.2,2.4,2.4,3.6,4.6,3.6c6.2,0,8.3-0.2,10.6-0.2c4.6,0,6,1.3,6,4.6v7.6c0,3.3-1.1,4.4-4.4,4.4H98.5
		c-6.5,0-6.5-6.5-6.5-8.7v-60c0-4.4,0-8.7,6.5-8.7h28.1c2.7,0,5.1,1.1,5.1,3.3v9.3c0,2.6-2.2,2.7-4.9,2.7c-4.3,0-7.6-0.2-10.4-0.2
		c-6,0-6,2.2-6,5.7c0,7.1,0,8.9,5.5,8.9c6.8,0,7.9-0.2,10.4-0.2c3.8,0,4,3.8,4,5v7c0,3.3-2.3,3.5-5,3.5c-5.6,0-9.1-0.2-11.3-0.2
		c-3.5,0-3.5,1.5-3.5,5.1V585z"/>
	<path d="M189.2,599.5c0,5-3.4,5.5-9.6,5.5h-5.8c-6.8,0-3.4-16.4-7.7-16.4h-8.7c-4.4,0-1.9,16.4-8.4,16.4h-5.1
		c-5.7,0-9.1-0.4-9.1-5.5c0-6.5,2.6-12.3,11.1-63.3c0.9-5.5,3.1-8.7,7.4-8.7h16.8c4.4,0,6.5,3.3,7.6,8.7
		C185.1,581,189.2,593,189.2,599.5z M157.4,570.5c0,1.7,0.8,1.7,4.3,1.7c3.4,0,4.3,0,4.3-1.6c0-0.4,0-1-0.1-1.7
		c-1.3-10.7-1.7-23.9-4.1-23.9c-2.3,0-3.1,13.1-4.1,23.9C157.4,569.5,157.4,570.1,157.4,570.5z"/>
	<path d="M212.3,597c-0.2,4.1-0.4,8-6.5,8h-5.5c-6.5,0-6.5-4.4-6.5-8.7v-49.9c0-2.7-0.5-3.4-2.8-3.4c-0.8,0-1.9,0.1-3.2,0.1
		c-2.7,0-4.9-0.4-4.9-3.1v-9.3c0-2.2,2.4-3.3,5.1-3.3h30.1c2.7,0,5.1,1.1,5.1,3.3v9.3c0,2.6-2.2,3.1-4.9,3.1c-0.8,0-1.7-0.1-3.1-0.1
		c-2.7,0-2.9,0.7-2.9,3.4V597z"/>
	<path d="M248.2,605c-6.5,0-6.5-4.4-6.5-8.7v-16.5c0-5.9-5.7-19.5-7.6-24.1l-0.3-0.8c-2.2-4.9-8.6-21.5-8.6-24.5
		c0-2.8,2.4-2.8,3.2-2.8h12.4c3.5,0,4.6,4.7,5.5,8.7c0.8,3.5,4.4,15.7,4.6,16.7c0.1,0.8,0.7,1.2,1.1,1.2c0.5,0,1-0.3,1.1-1.1
		c0.1-1,3.4-13.3,4.3-16.8c1-4,2.3-8.7,6.2-8.7h9.7c3.3,0,4.5,0,4.5,2.8c0,3.1-6.3,19.7-8.5,24.5c-1,2.2-2.8,7.2-5.1,12.9
		c-3.4,8.5-3.7,9.6-3.7,19.2v9.7c0,4.3,0,8.3-6.5,8.3H248.2z"/>
	<path d="M335.2,597.3c-2.1,7.5-4.6,7.6-8.5,7.6h-6c-6.2,0-7.1-3.2-8.3-8.7c-2.3-11-11-62.7-11-65.9c0-2.2,0.3-2.8,2.7-2.8h11.8
		c2.8,0,3.4,1.6,3.8,4.7l7.1,47.2c0,0.3,0.1,0.5,0.4,0.5s0.4-0.2,0.5-0.5c0.1-0.5,3.5-25.4,3.5-27.2c-0.9-5.8-2.9-17.9-3.2-20.4
		c-0.1-0.5-0.1-1.1-0.1-1.5c0-2,0.7-2.8,2.6-2.8c1.9,0,5,0.2,7.2,0.2c1,0,8.4-0.2,9.4-0.2c1.7,0,2.5,0.8,2.5,2.8
		c0,0.4-0.1,1-0.1,1.5c-0.2,2.5-1.9,14.7-1.9,20.5c0,2,4.9,27.1,4.9,27.1c0,0.3,0.1,0.5,0.4,0.5s0.4-0.2,0.5-0.5l4.7-47.6
		c0.1-2.7,1.1-4.4,3.6-4.4h12.8c1.7,0,2.1,0.8,2.1,2.6c0,3.4-7.3,55.1-9.5,66.1c-1,5.2-1.5,8.7-7.1,8.7h-7.9c-4.1,0-6,0-7.7-7.6
		c-1.5-6.4-3.5-14.5-4.8-14.5C339,582.8,336.6,592.1,335.2,597.3z"/>
	<path d="M379.3,557.4c0-17.6,1.6-30.4,24.7-30.4c21.9,0,23.5,12.7,23.5,30c0,6.5,0.3,13,0.3,18.8c0,17.2-2.7,29.8-23.8,29.8
		c-23,0-24.7-12.9-24.7-30.3c0-2.9,0.1-5.9,0.1-8.9C379.4,563.2,379.3,560.3,379.3,557.4z M398,548.3v34.4c0,3.3,0,7.6,5.5,7.6
		s5.5-4.4,5.5-7.6v-34.4c0-2.7,0-6-5.5-6S398,545.5,398,548.3z"/>
	<path d="M459,527.5c16.3,0,20.8,11.7,20.8,24.5c0,7.9-0.1,12.9-6.3,18.1c-3.1,2.6-5,1.1-5,5.2c0,4.5,1.4,9.9,5,9.9
		c2,0,3.2-0.5,3.5-0.5c3.5,0,4,2.9,4,8c0,2.4-0.1,5.3-0.1,8.6c0,2.2-0.9,4.1-6.5,4.1c-10,0-15.2-7.4-17.2-15.5
		c-2.6-10.1-5.9-11.9-6.5-11.9c-0.9,0-0.9,1.7-0.9,2.6v15.5c0,4.4,0,8.7-6.5,8.7h-7.6c-4.4,0-4.4-4.4-4.4-8.7v-60
		c0-4.4,0-8.7,6.5-8.7H459z M449.6,546.9c0,1.4,0.1,3.9,0.1,6.2c0,2.2-0.1,4.1-0.1,5.5c0,3.6,0.7,4.3,5,4.3c4.9,0,6-4.8,6-9.7
		s-1.1-10.9-6-10.9C450.2,542.3,449.6,543,449.6,546.9z"/>
	<path d="M534.3,601.7c0,2-1.7,3.3-5.7,3.3H523c-7,0-7.4-1.5-9.8-8.6c-4.9-14.3-6.8-24.1-9.9-24.1c-0.7,0-0.9,1-0.9,2.4
		c0,1.4,0.2,3.4,0.2,5.2v16.4c0,4.4,0,8.7-6.5,8.7h-5.5c-6.5,0-6.5-4.4-6.5-8.7v-60c0-4.4,0-8.7,6.5-8.7h5.5c6.5,0,6.5,4.4,6.5,8.7
		c0,19.3,0,19.3,0.5,19.3c3.3,0,6.3-12.9,7.4-15.5c3.6-8.6,3.9-12.5,9.5-12.5h6.3c3.7,0,6.8,0,6.8,3.1c0,1.3-0.5,3.2-1.9,5.8
		c-3.5,7.2-13.1,24.4-13.1,25.1c0,0.4,0.4,1.1,1.2,2.7C520.5,566.6,534,596.1,534.3,601.7z"/>
	<path d="M560.1,527c9.1,0,15.2,1.6,15.2,4.7v8.4c0,1.2-0.4,3.3-4.1,3.3h-0.9c-1.7,0-5.7-1.2-8.8-1.2c-2.6,0-4.7,0.9-4.7,4.4
		c0,3.4,1,5.1,5.2,8.6c13,10.7,15.6,18.3,15.6,27.2c0,5-0.1,9.6-2.9,13.9c-3.6,5.5-9.3,7.5-11.7,8.2c-2.9,0.8-7.1,1.2-10.5,1.2
		c-8.1,0-15.9-1.5-15.9-5.9v-8.4c0-1.3,1.1-2.6,4-2.6c2.8,0,5.2,1.6,11.5,1.6c3.1,0,7.2-2.4,7.2-5.8c0-2.5-0.1-4.4-6.8-10.9
		c-10.1-9.9-14.9-14.5-14.9-23.5C537.5,528.6,551.4,527,560.1,527z"/>
</g>
</svg>
